<svg xmlns="http://www.w3.org/2000/svg" xmlns:xlink="http://www.w3.org/1999/xlink" width="144" zoomAndPan="magnify" viewBox="0 0 108 107.999999" height="144" preserveAspectRatio="xMidYMid meet" version="1.0"><path fill="#ff6128" d="M 42.542969 20.980469 C 42.144531 21.164062 40.679688 22.421875 39.285156 23.769531 C 37.886719 25.121094 35.390625 27.503906 33.734375 29.066406 C 30.175781 32.429688 25.21875 37.214844 21.726562 40.664062 L 19.226562 43.132812 L 19.226562 65.496094 L 19.679688 65.921875 C 19.945312 66.171875 20.386719 66.351562 20.746094 66.351562 C 21.390625 66.351562 22 65.890625 24.144531 63.789062 C 24.746094 63.203125 27.703125 60.339844 30.71875 57.425781 C 33.332031 54.902344 35.945312 52.375 38.554688 49.847656 C 39.847656 48.589844 41.101562 47.460938 41.335938 47.339844 C 41.570312 47.21875 42.109375 47.121094 42.527344 47.121094 C 43.417969 47.121094 44.042969 47.664062 44.355469 48.707031 C 44.476562 49.125 44.539062 52.398438 44.511719 57.355469 C 44.460938 66.601562 44.417969 66.351562 46.070312 66.351562 C 47.144531 66.351562 46.15625 67.214844 55.714844 57.933594 C 68.597656 45.425781 68.035156 46.035156 67.8125 44.925781 C 67.742188 44.578125 67.496094 44.089844 67.261719 43.84375 L 66.839844 43.390625 L 46.507812 43.390625 L 45.867188 42.820312 L 45.222656 42.246094 L 45.171875 31.941406 L 45.117188 21.636719 L 44.519531 21.132812 C 43.816406 20.546875 43.515625 20.523438 42.542969 20.980469 M 80.398438 40.398438 C 79.109375 41.667969 74.683594 46.046875 70.566406 50.128906 C 66.449219 54.210938 62.230469 58.363281 61.191406 59.355469 L 59.300781 61.160156 L 59.167969 66.355469 C 59.019531 72.210938 59.132812 82.554688 59.351562 83.082031 C 59.691406 83.90625 61.046875 84.058594 61.925781 83.375 C 62.605469 82.847656 62.101562 83.324219 68.597656 77.046875 C 75.148438 70.714844 80.085938 65.90625 82.84375 63.179688 L 84.960938 61.085938 L 84.957031 50.226562 C 84.957031 39.75 84.945312 39.347656 84.570312 38.730469 C 84.242188 38.199219 84.0625 38.09375 83.460938 38.09375 C 82.804688 38.09375 82.53125 38.300781 80.398438 40.398438 " fill-opacity="1" fill-rule="evenodd"/></svg>