<svg xmlns="http://www.w3.org/2000/svg" xmlns:xlink="http://www.w3.org/1999/xlink" width="300" zoomAndPan="magnify" viewBox="0 0 224.87999 97.5" height="130" preserveAspectRatio="xMidYMid meet" version="1.0"><defs><g/><clipPath id="18bd8f1160"><path d="M 7 27 L 224.246094 27 L 224.246094 68 L 7 68 Z M 7 27 " clip-rule="nonzero"/></clipPath><clipPath id="b31fbee90e"><path d="M 55 12 L 217.246094 12 L 217.246094 34 L 55 34 Z M 55 12 " clip-rule="nonzero"/></clipPath><clipPath id="a41dde5efb"><rect x="0" width="163" y="0" height="22"/></clipPath><clipPath id="03ab9da18d"><path d="M 0.675781 0.699219 L 42 0.699219 L 42 40.097656 L 0.675781 40.097656 Z M 0.675781 0.699219 " clip-rule="nonzero"/></clipPath><clipPath id="fb63da9943"><rect x="0" width="218" y="0" height="41"/></clipPath></defs><g clip-path="url(#18bd8f1160)"><g transform="matrix(1, 0, 0, 1, 7, 27)"><g clip-path="url(#fb63da9943)"><g clip-path="url(#b31fbee90e)"><g transform="matrix(1, 0, 0, 1, 55, 12)"><g clip-path="url(#a41dde5efb)"><g fill="#ffffff" fill-opacity="1"><g transform="translate(1.768917, 15.907375)"><g><path d="M 6.265625 0 L 0.4375 -14.5 L 5.03125 -14.5 L 8.890625 -4.546875 L 8.921875 -4.546875 L 12.78125 -14.5 L 17.0625 -14.5 L 20.859375 -4.546875 L 20.90625 -4.546875 L 24.578125 -14.5 L 28.75 -14.5 L 22.921875 0 L 18.28125 0 L 14.6875 -9.375 L 14.640625 -9.375 L 10.90625 0 Z M 6.265625 0 "/></g></g></g><g fill="#ffffff" fill-opacity="1"><g transform="translate(27.868558, 15.907375)"><g><path d="M 16.34375 0 L 14.84375 -2.953125 L 6.3125 -2.953125 L 4.8125 0 L 0.4375 0 L 8.328125 -14.5 L 13.359375 -14.5 L 21.25 0 Z M 7.546875 -5.421875 L 13.578125 -5.421875 L 10.5625 -11.328125 L 10.53125 -11.328125 Z M 7.546875 -5.421875 "/></g></g></g><g fill="#ffffff" fill-opacity="1"><g transform="translate(49.55999, 15.907375)"><g><path d="M 1.25 0 L 1.25 -14.5 L 10.390625 -14.5 C 12.179688 -14.5 13.585938 -14.320312 14.609375 -13.96875 C 15.640625 -13.625 16.367188 -13.128906 16.796875 -12.484375 C 17.222656 -11.835938 17.4375 -11.078125 17.4375 -10.203125 C 17.4375 -9.484375 17.25 -8.800781 16.875 -8.15625 C 16.5 -7.507812 15.8125 -7.039062 14.8125 -6.75 L 14.8125 -6.703125 C 15.582031 -6.523438 16.144531 -6.242188 16.5 -5.859375 C 16.863281 -5.484375 17.09375 -5.046875 17.1875 -4.546875 C 17.289062 -4.054688 17.34375 -3.554688 17.34375 -3.046875 L 17.34375 0 L 13.125 0 L 13.125 -3.046875 C 13.125 -3.796875 12.953125 -4.34375 12.609375 -4.6875 C 12.273438 -5.039062 11.648438 -5.21875 10.734375 -5.21875 L 5.484375 -5.21875 L 5.484375 0 Z M 5.484375 -7.6875 L 10.578125 -7.6875 C 11.617188 -7.6875 12.351562 -7.863281 12.78125 -8.21875 C 13.207031 -8.570312 13.421875 -9.03125 13.421875 -9.59375 C 13.421875 -10.101562 13.1875 -10.523438 12.71875 -10.859375 C 12.257812 -11.203125 11.421875 -11.375 10.203125 -11.375 L 5.484375 -11.375 Z M 5.484375 -7.6875 "/></g></g></g><g fill="#ffffff" fill-opacity="1"><g transform="translate(68.209323, 15.907375)"><g><path d="M 9.28125 0.265625 C 7.769531 0.265625 6.515625 0.148438 5.515625 -0.078125 C 4.515625 -0.304688 3.707031 -0.609375 3.09375 -0.984375 C 2.488281 -1.359375 2.035156 -1.769531 1.734375 -2.21875 C 1.429688 -2.675781 1.226562 -3.132812 1.125 -3.59375 C 1.019531 -4.0625 0.96875 -4.488281 0.96875 -4.875 L 4.765625 -4.875 C 4.765625 -4.457031 4.890625 -4.078125 5.140625 -3.734375 C 5.390625 -3.398438 5.835938 -3.132812 6.484375 -2.9375 C 7.140625 -2.738281 8.070312 -2.640625 9.28125 -2.640625 C 10.5625 -2.640625 11.519531 -2.71875 12.15625 -2.875 C 12.800781 -3.03125 13.226562 -3.242188 13.4375 -3.515625 C 13.644531 -3.785156 13.75 -4.082031 13.75 -4.40625 C 13.75 -4.976562 13.367188 -5.351562 12.609375 -5.53125 C 12.316406 -5.601562 11.894531 -5.660156 11.34375 -5.703125 C 10.800781 -5.753906 10.222656 -5.789062 9.609375 -5.8125 C 8.992188 -5.84375 8.414062 -5.875 7.875 -5.90625 C 6.914062 -5.96875 5.953125 -6.066406 4.984375 -6.203125 C 4.023438 -6.347656 3.242188 -6.570312 2.640625 -6.875 C 2.117188 -7.15625 1.691406 -7.546875 1.359375 -8.046875 C 1.035156 -8.554688 0.875 -9.164062 0.875 -9.875 C 0.875 -10.769531 1.171875 -11.585938 1.765625 -12.328125 C 2.367188 -13.078125 3.285156 -13.671875 4.515625 -14.109375 C 5.753906 -14.546875 7.328125 -14.765625 9.234375 -14.765625 C 10.953125 -14.765625 12.34375 -14.628906 13.40625 -14.359375 C 14.476562 -14.085938 15.296875 -13.71875 15.859375 -13.25 C 16.429688 -12.78125 16.816406 -12.25 17.015625 -11.65625 C 17.222656 -11.0625 17.328125 -10.429688 17.328125 -9.765625 L 13.53125 -9.765625 C 13.53125 -10.429688 13.1875 -10.945312 12.5 -11.3125 C 11.820312 -11.675781 10.734375 -11.859375 9.234375 -11.859375 C 7.785156 -11.859375 6.734375 -11.707031 6.078125 -11.40625 C 5.429688 -11.101562 5.109375 -10.695312 5.109375 -10.1875 C 5.109375 -9.664062 5.421875 -9.304688 6.046875 -9.109375 C 6.304688 -9.035156 6.695312 -8.972656 7.21875 -8.921875 C 7.738281 -8.867188 8.300781 -8.820312 8.90625 -8.78125 C 9.519531 -8.75 10.101562 -8.710938 10.65625 -8.671875 C 11.707031 -8.609375 12.671875 -8.515625 13.546875 -8.390625 C 14.429688 -8.273438 15.1875 -8.09375 15.8125 -7.84375 C 16.5 -7.570312 17.03125 -7.160156 17.40625 -6.609375 C 17.789062 -6.054688 17.984375 -5.429688 17.984375 -4.734375 C 17.984375 -4.160156 17.875 -3.578125 17.65625 -2.984375 C 17.445312 -2.398438 17.039062 -1.863281 16.4375 -1.375 C 15.84375 -0.882812 14.96875 -0.488281 13.8125 -0.1875 C 12.65625 0.113281 11.144531 0.265625 9.28125 0.265625 Z M 9.28125 0.265625 "/></g></g></g><g fill="#ffffff" fill-opacity="1"><g transform="translate(87.079106, 15.907375)"><g><path d="M 1.25 0 L 1.25 -14.5 L 5.484375 -14.5 L 5.484375 -9.046875 L 14.796875 -9.046875 L 14.796875 -14.5 L 19.03125 -14.5 L 19.03125 0 L 14.796875 0 L 14.796875 -5.90625 L 5.484375 -5.90625 L 5.484375 0 Z M 1.25 0 "/></g></g></g><g fill="#ffffff" fill-opacity="1"><g transform="translate(107.359713, 15.907375)"><g><path d="M 1.25 0 L 1.25 -14.5 L 14.96875 -14.5 L 14.96875 -11.375 L 5.484375 -11.375 L 5.484375 -8.53125 L 12.765625 -8.53125 L 12.765625 -6.0625 L 5.484375 -6.0625 L 5.484375 -3.125 L 15.1875 -3.125 L 15.1875 0 Z M 1.25 0 "/></g></g></g><g fill="#ffffff" fill-opacity="1"><g transform="translate(123.319663, 15.907375)"><g><path d="M 6.265625 0 L 6.265625 -11.375 L 0.546875 -11.375 L 0.546875 -14.5 L 16.203125 -14.5 L 16.203125 -11.375 L 10.5 -11.375 L 10.5 0 Z M 6.265625 0 "/></g></g></g><g fill="#ffffff" fill-opacity="1"><g transform="translate(140.293694, 15.907375)"><g><path d="M 8.3125 0 L 8.3125 -5.890625 L 0.4375 -14.5 L 6.078125 -14.5 L 10.78125 -9.234375 L 10.84375 -9.234375 L 15.5 -14.5 L 20.4375 -14.5 L 12.546875 -5.890625 L 12.546875 0 Z M 8.3125 0 "/></g></g></g></g></g></g><g clip-path="url(#03ab9da18d)"><path fill="#ff4808" d="M 15.207031 0.960938 C 14.960938 1.074219 14.050781 1.855469 13.183594 2.695312 C 12.3125 3.535156 10.761719 5.019531 9.730469 5.992188 C 7.515625 8.082031 4.433594 11.058594 2.261719 13.203125 L 0.703125 14.738281 L 0.703125 28.652344 L 0.988281 28.917969 C 1.152344 29.074219 1.425781 29.183594 1.652344 29.183594 C 2.050781 29.183594 2.429688 28.898438 3.765625 27.589844 C 4.136719 27.222656 5.976562 25.441406 7.851562 23.632812 C 9.480469 22.0625 11.105469 20.488281 12.726562 18.917969 C 13.53125 18.132812 14.3125 17.433594 14.457031 17.359375 C 14.605469 17.28125 14.9375 17.222656 15.199219 17.222656 C 15.753906 17.222656 16.140625 17.558594 16.335938 18.207031 C 16.414062 18.46875 16.449219 20.503906 16.433594 23.585938 C 16.402344 29.339844 16.375 29.183594 17.402344 29.183594 C 18.074219 29.183594 17.457031 29.71875 23.402344 23.945312 C 31.417969 16.167969 31.066406 16.542969 30.929688 15.855469 C 30.886719 15.640625 30.730469 15.335938 30.585938 15.183594 L 30.324219 14.902344 L 17.675781 14.902344 L 17.277344 14.546875 L 16.878906 14.1875 L 16.84375 7.78125 L 16.808594 1.371094 L 16.4375 1.054688 C 16.003906 0.6875 15.816406 0.675781 15.207031 0.960938 M 38.757812 13.039062 C 37.957031 13.828125 35.203125 16.550781 32.640625 19.09375 C 30.082031 21.632812 27.457031 24.214844 26.808594 24.832031 L 25.632812 25.953125 L 25.550781 29.1875 C 25.460938 32.828125 25.53125 39.261719 25.664062 39.589844 C 25.878906 40.101562 26.71875 40.199219 27.265625 39.773438 C 27.6875 39.445312 27.375 39.742188 31.417969 35.835938 C 35.492188 31.898438 38.5625 28.90625 40.28125 27.210938 L 41.59375 25.910156 L 41.59375 19.152344 C 41.59375 12.636719 41.585938 12.386719 41.351562 12.003906 C 41.148438 11.671875 41.035156 11.605469 40.660156 11.605469 C 40.253906 11.605469 40.082031 11.734375 38.757812 13.039062 " fill-opacity="1" fill-rule="evenodd"/></g></g></g></g></svg>